PathFileType  4	(X/Y/Z) C:\Users\antoi\Documents\MyRepositories\mobilecap\ResultsAnalysis
DataRate	CameraRate	NumFrames	NumMarkers	Units	OrigDataRate	OrigDataStartFrame	OrigNumFrames
100.0	100.0	4	51	mm	100.0	17	135
Frame#	Time	r_knee			r_shank_antsup			r_ankle			r_calc			r_5meta			r_toe			L_knee			L_shank_antsup			L_ankle			L_calc			L_5meta			L_toe			r_sh2			r_sh3			r_sh4			L_sh2			L_sh3			r_thigh1			r_thigh2			r_thigh3			r_thigh4			r_thigh5			L_thigh1			L_thigh2			L_thigh3			L_thigh4			r.ASIS			r.PSIS			L.ASIS			L.PSIS			C7			R_Shoulder			L_Shoulder			R_Sternum			L_Sternum			R_humerus			R_elbow_med			R_elbow_lat			R_forearm			R_wrist_radius			R_wrist_ulna			L_humerus			L_elbow_med			L_elbow_lat			L_forearm			L_wrist_radius			L_wrist_ulna			R_HJC			L_HJC			R_HJC_reg			L_HJC_reg			
		X1	Y1	Z1	X2	Y2	Z2	X3	Y3	Z3	X4	Y4	Z4	X5	Y5	Z5	X6	Y6	Z6	X7	Y7	Z7	X8	Y8	Z8	X9	Y9	Z9	X10	Y10	Z10	X11	Y11	Z11	X12	Y12	Z12	X13	Y13	Z13	X14	Y14	Z14	X15	Y15	Z15	X16	Y16	Z16	X17	Y17	Z17	X18	Y18	Z18	X19	Y19	Z19	X20	Y20	Z20	X21	Y21	Z21	X22	Y22	Z22	X23	Y23	Z23	X24	Y24	Z24	X25	Y25	Z25	X26	Y26	Z26	X27	Y27	Z27	X28	Y28	Z28	X29	Y29	Z29	X30	Y30	Z30	X31	Y31	Z31	X32	Y32	Z32	X33	Y33	Z33	X34	Y34	Z34	X35	Y35	Z35	X36	Y36	Z36	X37	Y37	Z37	X38	Y38	Z38	X39	Y39	Z39	X40	Y40	Z40	X41	Y41	Z41	X42	Y42	Z42	X43	Y43	Z43	X44	Y44	Z44	X45	Y45	Z45	X46	Y46	Z46	X47	Y47	Z47	X48	Y48	Z48	X49	Y49	Z49	X50	Y50	Z50	X51	Y51	Z51	

17	0.16000000	281.13776	498.67908	-17.72969	328.80963	431.98605	-34.53234	275.30158	94.88096	-44.44434	207.74596	65.28835	-81.40862	381.01023	43.69512	-16.25379	427.69985	72.69303	-73.00884	164.70020	453.83625	-333.48072	120.86975	373.05671	-345.52577	-162.53341	250.26578	-333.84258	-223.77133	286.78471	-279.48601	-175.79363	134.36089	-386.70643	-128.46282	102.99896	-341.06548	311.82325	317.77710	-12.65591	250.59315	439.73561	-5.04873	237.17660	327.71888	-5.44986	79.33157	450.98808	-334.05507	-23.03529	385.30641	-345.13086	244.35043	821.39192	4.65273	276.66539	711.54870	3.39343	226.44126	676.68600	31.25593	137.06945	790.67295	21.60013	169.27642	677.74000	17.27384	179.57163	715.30869	-366.11405	201.15355	580.59034	-348.82928	78.29087	701.74809	-313.18691	103.25034	564.13371	-306.83146	226.96219	960.41765	-51.03681	35.23452	987.61103	-132.42754	231.85390	913.29530	-298.26022	28.55265	975.64828	-233.25316	66.98703	1396.50217	-200.09738	151.77814	1342.97722	-16.77725	157.80236	1358.95941	-374.85092	201.51552	1346.36380	-169.78284	208.25004	1349.36657	-213.24025	142.53449	1210.19953	46.56271	64.61479	1002.94391	6.88299	73.42622	1021.58336	77.59975	158.12263	907.62093	102.44495	211.57457	783.04873	113.45535	180.71576	772.58090	128.61572	186.80030	1246.71779	-434.17979	154.52991	1006.71552	-401.99289	184.76691	1036.10936	-470.31837	280.36671	970.16978	-444.68336	376.30737	846.98552	-425.67535	359.79943	834.45366	-454.32858	149.41675	878.33801	-61.48643	149.04408	845.52600	-265.33950	161.39606	875.05723	-71.60475	150.48704	855.52051	-236.23220	
18	0.17000000	286.26883	498.64352	-16.88381	333.27669	431.36085	-33.82100	275.31900	95.01898	-44.54651	207.63811	65.39419	-81.57952	381.03257	43.58039	-16.09492	427.83120	72.45070	-72.86756	188.36678	457.39504	-330.30645	145.98044	376.61249	-341.89920	-138.33257	255.73364	-330.41653	-200.32784	292.41301	-276.83657	-150.59125	139.32937	-382.15407	-103.72189	108.63303	-335.69670	314.94017	317.29572	-12.05447	255.21188	439.98753	-4.10858	240.39079	328.17777	-4.69108	105.18650	454.84753	-330.05255	2.26067	390.16638	-341.70847	253.68333	821.85882	6.37081	284.58241	711.59981	4.90927	233.61560	677.31740	32.22621	145.90048	792.51341	22.27500	176.55445	679.17217	17.84652	194.40936	717.97366	-364.04612	220.21475	584.02398	-346.62624	94.18567	701.57609	-310.07899	123.75113	565.21890	-302.42325	237.87559	962.26486	-49.38519	46.23539	989.79518	-131.41060	242.94053	915.42470	-297.11388	39.66608	977.83907	-232.29003	78.81834	1398.99184	-197.17769	165.44761	1344.52024	-14.92111	167.87577	1361.55514	-373.03820	213.48682	1348.37331	-168.24796	219.82797	1351.55128	-211.78980	158.20789	1211.50151	47.91362	80.92058	1003.80222	9.28402	91.24951	1022.36276	79.76473	176.96266	908.81015	102.59405	231.30453	784.56488	112.02534	200.91301	773.84531	127.89677	195.33446	1248.70828	-432.55712	159.91162	1009.21070	-399.44851	190.31265	1037.99586	-467.95450	284.88103	970.54622	-442.63017	378.87186	845.76369	-423.84489	362.19689	833.51476	-452.50472	160.16343	880.27533	-60.35095	160.09663	847.69170	-264.24165	172.11854	877.06394	-70.13778	161.37970	857.51566	-235.07010	
19	0.18000000	291.13249	498.65831	-16.27907	337.38634	430.82757	-33.33617	275.34923	95.19289	-44.66950	207.48368	65.52780	-81.76255	381.06344	43.46818	-15.96540	427.97917	72.22610	-72.75495	211.66533	461.59372	-327.05538	171.23686	380.24710	-338.24085	-113.53471	259.98242	-326.89176	-176.36465	296.61153	-274.11897	-124.27036	142.84621	-377.19629	-77.65208	113.18810	-329.98308	317.82307	316.91810	-11.63670	259.48134	440.27643	-3.42101	243.38469	328.66369	-4.15955	130.71022	458.60939	-326.56999	27.58653	394.31287	-338.59845	262.96246	822.35720	7.78164	292.28678	711.67932	6.08189	240.67520	678.03130	32.92747	154.62452	794.36864	22.84262	183.72796	680.64067	18.24580	208.72310	720.97721	-362.10123	238.73272	587.96514	-344.41696	109.74563	701.88105	-306.89756	143.76170	566.93333	-297.92673	248.82995	964.10074	-47.84305	57.16171	992.12319	-130.28283	253.78760	917.93775	-296.21540	50.69128	980.41628	-231.21551	90.48940	1401.70638	-194.42293	178.91426	1346.34636	-13.24903	177.73364	1364.28999	-371.36817	225.27140	1350.61006	-166.89537	231.23810	1353.93971	-210.53713	173.76174	1213.11628	49.08390	97.24093	1004.89938	11.71219	109.25300	1023.41653	81.84924	195.90825	910.39929	102.58855	251.14757	786.44220	110.42967	221.44791	775.53308	127.11838	203.65951	1250.87370	-431.05866	165.06722	1011.93598	-396.89878	195.61829	1040.07452	-465.59923	289.06334	971.04390	-440.62919	380.96264	844.60032	-422.15608	364.09830	832.64523	-450.79879	170.90970	882.22916	-59.41171	170.93254	850.22977	-263.39224	182.78493	878.96869	-68.96461	172.18837	859.79715	-234.28394	
20	0.19000000	295.65365	498.72388	-15.89211	341.08740	430.38547	-32.97424	275.39241	95.39293	-44.80058	207.31072	65.67898	-81.93220	381.09840	43.35327	-15.86508	428.12951	72.02561	-72.66668	234.63608	466.26252	-323.82330	196.49113	383.94244	-334.63483	-88.24672	262.94197	-323.28047	-151.93906	299.29692	-271.27767	-97.03904	144.93095	-371.94246	-50.43315	116.62725	-324.09310	320.35950	316.64353	-11.35257	263.30232	440.61024	-3.02880	246.03530	329.18888	-3.89784	155.76207	462.25639	-323.67239	52.78858	397.72676	-335.76398	272.25095	822.88490	8.87747	299.84520	711.77786	6.93293	247.61416	678.84378	33.34809	163.33241	796.28889	23.32436	190.84660	682.18044	18.48454	222.66000	724.23984	-360.28594	256.83948	592.31163	-342.22357	125.05571	702.55074	-303.71929	163.36138	569.08957	-293.57454	259.85185	965.95394	-46.42399	68.05596	994.58534	-129.08130	264.44526	920.86272	-295.50323	61.63803	983.32788	-230.06260	102.01378	1404.60576	-191.82353	192.15985	1348.45804	-11.73659	187.40124	1367.14808	-369.81152	236.89130	1353.05481	-165.69699	242.49191	1356.51306	-209.45194	189.11840	1215.06502	50.11817	113.57287	1006.25441	14.11687	127.35683	1024.74721	83.82806	214.93208	912.40095	102.42399	271.08995	788.71428	108.64333	242.26667	777.65794	126.28135	211.78304	1253.22104	-429.67830	170.04687	1014.90406	-394.34045	200.69949	1042.34745	-463.26835	292.96056	971.67424	-438.68781	382.60689	843.51429	-420.60381	365.53169	831.86568	-449.21073	181.69435	884.22068	-58.66104	181.62772	853.13290	-262.77781	193.46530	880.86446	-68.03875	182.93279	862.39487	-233.76956	
